<svg width="24" height="25" viewBox="0 0 24 25" fill="none" xmlns="http://www.w3.org/2000/svg">
<path d="M22 16.7689V4.69893C22 3.49893 21.02 2.60893 19.83 2.70893H19.77C17.67 2.88893 14.48 3.95893 12.7 5.07893L12.53 5.18893C12.24 5.36893 11.76 5.36893 11.47 5.18893L11.22 5.03893C9.44 3.92893 6.26 2.86893 4.16 2.69893C2.97 2.59893 2 3.49893 2 4.68893V16.7689C2 17.7289 2.78 18.6289 3.74 18.7489L4.03 18.7889C6.2 19.0789 9.55 20.1789 11.47 21.2289L11.51 21.2489C11.78 21.3989 12.21 21.3989 12.47 21.2489C14.39 20.1889 17.75 19.0789 19.93 18.7889L20.26 18.7489C21.22 18.6289 22 17.7289 22 16.7689Z" stroke="white" stroke-width="1.5" stroke-linecap="round" stroke-linejoin="round"/>
<path d="M12 5.51893V20.5189" stroke="white" stroke-width="1.5" stroke-linecap="round" stroke-linejoin="round"/>
<path d="M7.75 8.51893H5.5" stroke="white" stroke-width="1.5" stroke-linecap="round" stroke-linejoin="round"/>
<path d="M8.5 11.5189H5.5" stroke="white" stroke-width="1.5" stroke-linecap="round" stroke-linejoin="round"/>
</svg>
